<?xml version="1.0" encoding="UTF-8"?>
<svg xmlns="http://www.w3.org/2000/svg" xmlns:xlink="http://www.w3.org/1999/xlink" width="43pt" height="43pt" viewBox="0 0 43 43" version="1.1">
<defs>
<linearGradient id="linear0" gradientUnits="userSpaceOnUse" x1="22" y1="-0.00000000726346" x2="22.1219" y2="40.5458" gradientTransform="matrix(0.977273,0,0,0.977273,0,0)">
<stop offset="0" style="stop-color:rgb(54.117647%,82.745098%,21.176471%);stop-opacity:1;"/>
<stop offset="1" style="stop-color:rgb(31.372549%,58.823529%,0%);stop-opacity:1;"/>
</linearGradient>
</defs>
<g id="surface1">
<path style=" stroke:none;fill-rule:nonzero;fill:url(#linear0);" d="M 43 21.5 C 43 33.375 33.375 43 21.5 43 C 9.625 43 0 33.375 0 21.5 C 0 9.625 9.625 0 21.5 0 C 33.375 0 43 9.625 43 21.5 Z M 43 21.5 "/>
<path style=" stroke:none;fill-rule:evenodd;fill:rgb(100%,100%,100%);fill-opacity:1;" d="M 13.691406 9.144531 C 13.835938 9.191406 14.0625 9.308594 14.191406 9.394531 C 14.984375 9.917969 17.1875 12.734375 17.910156 14.144531 C 18.324219 14.949219 18.460938 15.542969 18.332031 15.984375 C 18.199219 16.457031 17.976562 16.707031 16.988281 17.503906 C 16.59375 17.824219 16.222656 18.152344 16.164062 18.242188 C 16.011719 18.457031 15.890625 18.882812 15.890625 19.183594 C 15.894531 19.878906 16.347656 21.140625 16.9375 22.109375 C 17.398438 22.863281 18.21875 23.828125 19.03125 24.570312 C 19.988281 25.445312 20.828125 26.039062 21.78125 26.511719 C 23.003906 27.117188 23.75 27.273438 24.296875 27.019531 C 24.433594 26.957031 24.578125 26.871094 24.625 26.835938 C 24.667969 26.796875 24.988281 26.40625 25.335938 25.972656 C 26.011719 25.125 26.167969 24.984375 26.628906 24.828125 C 27.21875 24.628906 27.820312 24.683594 28.421875 24.992188 C 28.882812 25.226562 29.882812 25.847656 30.53125 26.296875 C 31.378906 26.894531 33.199219 28.375 33.445312 28.671875 C 33.878906 29.203125 33.953125 29.886719 33.660156 30.640625 C 33.351562 31.4375 32.152344 32.925781 31.3125 33.5625 C 30.554688 34.136719 30.015625 34.359375 29.308594 34.390625 C 28.722656 34.421875 28.480469 34.371094 27.734375 34.0625 C 21.878906 31.652344 17.207031 28.054688 13.496094 23.113281 C 11.554688 20.53125 10.078125 17.855469 9.070312 15.078125 C 8.480469 13.457031 8.453125 12.753906 8.9375 11.925781 C 9.144531 11.574219 10.03125 10.707031 10.679688 10.226562 C 11.753906 9.425781 12.25 9.128906 12.648438 9.046875 C 12.917969 8.988281 13.390625 9.035156 13.691406 9.144531 Z M 13.691406 9.144531 "/>
</g>
</svg>
