<?xml version="1.0" encoding="UTF-8"?>
<svg xmlns="http://www.w3.org/2000/svg" xmlns:xlink="http://www.w3.org/1999/xlink" width="43pt" height="43pt" viewBox="0 0 43 43" version="1.1">
<defs>
<linearGradient id="linear0" gradientUnits="userSpaceOnUse" x1="22" y1="0" x2="22" y2="44" gradientTransform="matrix(0.977273,0,0,0.977273,0,0)">
<stop offset="0" style="stop-color:rgb(37.254902%,62.745098%,100%);stop-opacity:1;"/>
<stop offset="1" style="stop-color:rgb(1.176471%,35.294118%,85.490196%);stop-opacity:1;"/>
</linearGradient>
<clipPath id="clip1">
  <path d="M 8.589844 9.675781 L 34.355469 9.675781 L 34.355469 33.328125 L 8.589844 33.328125 Z M 8.589844 9.675781 "/>
</clipPath>
</defs>
<g id="surface1">
<path style=" stroke:none;fill-rule:nonzero;fill:url(#linear0);" d="M 43 21.5 C 43 33.375 33.375 43 21.5 43 C 9.625 43 0 33.375 0 21.5 C 0 9.625 9.625 0 21.5 0 C 33.375 0 43 9.625 43 21.5 Z M 43 21.5 "/>
<g clip-path="url(#clip1)" clip-rule="nonzero">
<path style=" stroke:none;fill-rule:evenodd;fill:rgb(100%,100%,100%);fill-opacity:1;" d="M 14.925781 33.316406 C 15.417969 33.3125 15.910156 33.304688 16.402344 33.304688 C 16.398438 33.289062 16.394531 33.273438 16.390625 33.261719 C 16.394531 33.273438 16.398438 33.289062 16.402344 33.304688 C 16.515625 33.304688 16.625 33.3125 16.738281 33.320312 L 24.828125 33.320312 C 25.5 33.320312 26.171875 33.324219 26.84375 33.324219 C 28.1875 33.328125 29.53125 33.328125 30.875 33.320312 L 30.902344 33.320312 C 32.773438 33.304688 34.273438 31.832031 34.261719 30.023438 L 34.261719 26.855469 C 34.261719 26.835938 34.265625 26.808594 34.265625 26.785156 C 34.269531 26.703125 34.277344 26.613281 34.242188 26.617188 C 34.140625 26.621094 33.980469 26.65625 33.925781 26.710938 C 33.496094 26.988281 33.078125 27.289062 32.664062 27.59375 C 31.828125 28.195312 30.996094 28.800781 30.058594 29.203125 C 26.414062 30.390625 23.1875 30.449219 19.765625 29.648438 C 19.578125 29.582031 19.492188 29.589844 19.332031 29.605469 C 19.230469 29.613281 19.097656 29.621094 18.894531 29.617188 C 18.871094 29.617188 18.84375 29.621094 18.816406 29.621094 C 18.480469 29.628906 17.988281 29.644531 17.402344 29.992188 C 16.03125 30.398438 14.171875 30.449219 13.210938 30.308594 C 13.214844 30.320312 13.21875 30.328125 13.21875 30.335938 C 13.214844 30.328125 13.214844 30.324219 13.210938 30.316406 C 13.195312 30.300781 13.179688 30.289062 13.164062 30.277344 C 13.113281 30.234375 13.066406 30.199219 13.152344 30.125 C 13.179688 30.109375 13.207031 30.09375 13.234375 30.078125 C 13.285156 30.042969 13.335938 30.007812 13.390625 29.980469 C 14.121094 29.519531 14.8125 29.015625 15.265625 28.273438 C 15.882812 27.550781 15.597656 27.269531 15.050781 26.730469 L 15.03125 26.710938 C 12.375 24.089844 11.59375 21.308594 11.871094 17.570312 C 12.203125 15.515625 13.175781 13.75 14.582031 12.210938 C 15.433594 11.28125 16.445312 10.527344 17.554688 9.898438 C 17.570312 9.890625 17.589844 9.882812 17.609375 9.875 C 17.664062 9.851562 17.71875 9.824219 17.726562 9.753906 C 17.734375 9.695312 17.640625 9.675781 17.605469 9.675781 C 16.976562 9.675781 16.351562 9.671875 15.730469 9.667969 C 14.496094 9.65625 13.277344 9.644531 12.023438 9.675781 C 10.226562 9.726562 8.589844 10.925781 8.617188 13.058594 C 8.625 16.828125 8.625 20.597656 8.621094 24.363281 C 8.621094 26.246094 8.617188 28.128906 8.617188 30.011719 C 8.617188 31.761719 10 33.230469 11.808594 33.300781 C 12.847656 33.335938 13.886719 33.328125 14.925781 33.316406 Z M 13.28125 30.433594 C 13.285156 30.4375 13.289062 30.445312 13.292969 30.453125 C 13.390625 30.535156 13.488281 30.621094 13.585938 30.707031 C 13.492188 30.617188 13.394531 30.53125 13.292969 30.445312 C 13.289062 30.441406 13.285156 30.4375 13.28125 30.433594 Z M 16.15625 33.042969 C 16.121094 33.019531 16.089844 32.996094 16.058594 32.96875 C 16.058594 32.96875 16.054688 32.96875 16.050781 32.96875 C 16.054688 32.96875 16.058594 32.972656 16.058594 32.976562 C 16.089844 33 16.121094 33.023438 16.15625 33.042969 Z M 16.15625 33.042969 "/>
</g>
<path style=" stroke:none;fill-rule:nonzero;fill:rgb(100%,100%,100%);fill-opacity:1;" d="M 17.273438 21.183594 C 18.121094 21.183594 18.914062 21.175781 19.703125 21.183594 C 20.148438 21.1875 20.386719 21.367188 20.433594 21.707031 C 20.484375 22.136719 20.226562 22.421875 19.746094 22.429688 C 18.835938 22.4375 17.9375 22.433594 17.027344 22.433594 C 16.765625 22.433594 16.507812 22.445312 16.246094 22.429688 C 15.921875 22.414062 15.601562 22.347656 15.445312 22.023438 C 15.289062 21.699219 15.398438 21.40625 15.613281 21.140625 C 16.472656 20.078125 17.34375 19.011719 18.210938 17.949219 C 18.261719 17.882812 18.3125 17.820312 18.359375 17.757812 C 18.304688 17.667969 18.226562 17.710938 18.160156 17.707031 C 17.554688 17.699219 16.945312 17.707031 16.339844 17.699219 C 16.199219 17.699219 16.058594 17.683594 15.925781 17.65625 C 15.605469 17.585938 15.410156 17.277344 15.484375 16.972656 C 15.535156 16.769531 15.703125 16.601562 15.914062 16.550781 C 16.050781 16.519531 16.1875 16.503906 16.328125 16.503906 C 17.324219 16.496094 18.328125 16.496094 19.324219 16.503906 C 19.503906 16.496094 19.675781 16.519531 19.851562 16.5625 C 20.230469 16.6875 20.394531 17.027344 20.242188 17.386719 C 20.109375 17.695312 19.894531 17.960938 19.683594 18.226562 C 18.949219 19.128906 18.214844 20.027344 17.480469 20.921875 C 17.421875 20.992188 17.363281 21.0625 17.273438 21.183594 Z M 17.273438 21.183594 "/>
<path style=" stroke:none;fill-rule:nonzero;fill:rgb(100%,100%,100%);fill-opacity:1;" d="M 23.769531 18.335938 C 23.90625 18.167969 24.042969 18.007812 24.273438 17.964844 C 24.714844 17.878906 25.128906 18.15625 25.136719 18.589844 C 25.152344 19.671875 25.148438 20.753906 25.136719 21.839844 C 25.136719 22.121094 24.945312 22.371094 24.671875 22.449219 C 24.390625 22.554688 24.074219 22.472656 23.886719 22.238281 C 23.792969 22.125 23.753906 22.105469 23.617188 22.207031 C 23.109375 22.609375 22.53125 22.679688 21.910156 22.484375 C 20.914062 22.167969 20.503906 21.417969 20.394531 20.5 C 20.277344 19.507812 20.617188 18.664062 21.535156 18.144531 C 22.296875 17.707031 23.070312 17.742188 23.769531 18.335938 Z M 21.789062 20.3125 C 21.800781 20.550781 21.878906 20.777344 22.023438 20.964844 C 22.324219 21.355469 22.902344 21.4375 23.3125 21.144531 C 23.378906 21.097656 23.441406 21.035156 23.496094 20.964844 C 23.808594 20.554688 23.808594 19.878906 23.496094 19.464844 C 23.339844 19.253906 23.09375 19.128906 22.828125 19.125 C 22.214844 19.085938 21.78125 19.546875 21.789062 20.3125 Z M 27.648438 20.34375 C 27.605469 18.953125 28.550781 17.910156 29.894531 17.875 C 31.324219 17.832031 32.363281 18.757812 32.410156 20.109375 C 32.453125 21.480469 31.585938 22.449219 30.25 22.582031 C 28.785156 22.722656 27.628906 21.699219 27.648438 20.34375 Z M 29.054688 20.214844 C 29.042969 20.484375 29.128906 20.75 29.296875 20.972656 C 29.605469 21.363281 30.179688 21.4375 30.585938 21.132812 C 30.644531 21.089844 30.695312 21.035156 30.746094 20.984375 C 31.070312 20.570312 31.070312 19.878906 30.753906 19.464844 C 30.59375 19.261719 30.347656 19.128906 30.085938 19.125 C 29.480469 19.09375 29.054688 19.535156 29.054688 20.214844 Z M 27.15625 19.265625 C 27.15625 20.105469 27.164062 20.945312 27.15625 21.785156 C 27.164062 22.167969 26.847656 22.488281 26.453125 22.5 C 26.386719 22.5 26.3125 22.496094 26.246094 22.476562 C 25.964844 22.40625 25.753906 22.121094 25.753906 21.777344 L 25.753906 17.472656 C 25.753906 17.21875 25.746094 16.96875 25.753906 16.714844 C 25.757812 16.296875 26.03125 16.027344 26.445312 16.027344 C 26.871094 16.019531 27.15625 16.292969 27.15625 16.726562 C 27.164062 17.570312 27.15625 18.421875 27.15625 19.265625 Z M 27.15625 19.265625 "/>
<path style=" stroke:none;fill-rule:nonzero;fill:rgb(0%,40.784314%,100%);fill-opacity:1;" d="M 21.789062 20.308594 C 21.78125 19.546875 22.214844 19.085938 22.824219 19.117188 C 23.085938 19.128906 23.332031 19.253906 23.488281 19.464844 C 23.804688 19.871094 23.804688 20.554688 23.488281 20.964844 C 23.1875 21.355469 22.609375 21.4375 22.203125 21.144531 C 22.136719 21.097656 22.074219 21.035156 22.015625 20.964844 C 21.878906 20.777344 21.800781 20.546875 21.789062 20.308594 Z M 29.054688 20.214844 C 29.054688 19.542969 29.480469 19.089844 30.085938 19.125 C 30.347656 19.128906 30.59375 19.257812 30.753906 19.464844 C 31.070312 19.878906 31.070312 20.574219 30.746094 20.980469 C 30.433594 21.367188 29.851562 21.433594 29.453125 21.128906 C 29.390625 21.085938 29.339844 21.03125 29.296875 20.972656 C 29.128906 20.75 29.050781 20.484375 29.054688 20.214844 Z M 29.054688 20.214844 "/>
</g>
</svg>
